{"title":"Six.Nations.Rugby.Highlights.Weekend.2-2013-02-11-720p.x264","uid":8130461,"size":1043540329,"categoryP":"video","categoryS":"hd___tv_shows","magnet":"?xt=urn:btih:67fe6f2f5068c1377d6fe0c56c5d34b8e1b123d4&amp;dn=Six.Nations.Rugby.Highlights.Weekend.2-2013-02-11-720p.x264&amp;tr=udp%3A%2F%2Ftracker.openbittorrent.com%3A80&amp;tr=udp%3A%2F%2Fopen.demonii.com%3A1337&amp;tr=udp%3A%2F%2Ftracker.coppersurfer.tk%3A6969&amp;tr=udp%3A%2F%2Fexodus.desync.com%3A6969","seeders":1,"leechers":0,"uploader":"rugbybill","files":3,"time":1360591264,"description":"SPORT: Six Nations Rugby Highlights\nOn: BBC HD \nDate: Monday 11th February 2013\nTime: 00:05 to 00:50 \n\nHighlights from the second weekend of the Six Nations. England look for a rare win in Dublin over Ireland, while reigning champions Wales visit Paris to take on France. And Scotland and Italy do battle at Murrayfield. \n\n\nGeneral\nComplete name                            : 2013.02.11.6N.Highlights.720p.x264.mp4\nFormat                                   : MPEG-4\nFormat profile                           : Base Media\nFile size                                : 995 MiB\nDuration                                 : 44mn 1s\nOverall bit rate mode                    : Variable\nOverall bit rate                         : 3 160 Kbps\n\nVideo\nID                                       : 1\nFormat                                   : AVC\nFormat/Info                              : Advanced Video Codec\nFormat profile                           : &lt;a class=&quot;__cf_email__&quot; href=&quot;/cdn-cgi/l/email-protection&quot; data-cfemail=&quot;6d25040a052d2159435c&quot;&gt;[email&amp;#160;protected]&lt;/a&gt;&lt;script cf-hash='f9e31' type=&quot;text/javascript&quot;&gt;\n/* &lt;![CDATA[ */!function(){try{var t=&quot;currentScript&quot;in document?document.currentScript:function(){for(var t=document.getElementsByTagName(&quot;script&quot;),e=t.length;e--;)if(t[e].getAttribute(&quot;cf-hash&quot;))return t[e]}();if(t&amp;&amp;t.previousSibling){var e,r,n,i,c=t.previousSibling,a=c.getAttribute(&quot;data-cfemail&quot;);if(a){for(e=&quot;&quot;,r=parseInt(a.substr(0,2),16),n=2;a.length-n;n+=2)i=parseInt(a.substr(n,2),16)^r,e+=String.fromCharCode(i);e=document.createTextNode(e),c.parentNode.replaceChild(e,c)}}}catch(u){}}();/* ]]&gt; */&lt;/script&gt;\nFormat settings, CABAC                   : Yes\nFormat settings, ReFrames                : 5 frames\nCodec ID/Info                            : Advanced Video Coding\nDuration                                 : 44mn 1s\nBit rate                                 : 3 032 Kbps\nMaximum bit rate                         : 12.1 Mbps\nWidth                                    : 1 280 pixels\nHeight                                   : 720 pixels\nDisplay aspect ratio                     : 16:9\nFrame rate mode                          : Constant\nFrame rate                               : 25.000 fps\nColor space                              : YUV\nChroma subsampling                       : 4:2:0\nBit depth                                : 8 bits\nScan type                                : Progressive\nBits/(Pixel*Frame)                       : 0.132\nStream size                              : 954 MiB (96%)\nWriting library                          : x264 core 129 r2245 bc13772\n\nAudio\nID                                       : 2\nFormat                                   : AAC\nFormat/Info                              : Advanced Audio Codec\nFormat profile                           : LC\nCodec ID                                 : 40\nDuration                                 : 44mn 1s\nBit rate mode                            : Variable\nBit rate                                 : 124 Kbps\nMaximum bit rate                         : 135 Kbps\nChannel(s)                               : 2 channels\nChannel positions                        : Front: L R\nSampling rate                            : 48.0 KHz\nCompression mode                         : Lossy\nDelay relative to video                  : 80ms\nStream size                              : 39.0 MiB (4%)\nLanguage                                 : English\n\n","torrent":{"xt":"urn:btih:67fe6f2f5068c1377d6fe0c56c5d34b8e1b123d4","amp;dn":"Six.Nations.Rugby.Highlights.Weekend.2-2013-02-11-720p.x264","amp;tr":["udp%3A%2F%2Ftracker.openbittorrent.com%3A80","udp%3A%2F%2Fopen.demonii.com%3A1337","udp%3A%2F%2Ftracker.coppersurfer.tk%3A6969","udp%3A%2F%2Fexodus.desync.com%3A6969"],"infoHash":"67fe6f2f5068c1377d6fe0c56c5d34b8e1b123d4","infoHashBuffer":{"type":"Buffer","data":[103,254,111,47,80,104,193,55,125,111,224,197,108,93,52,184,225,177,35,212]},"announce":[],"urlList":[]}}